<mxfile host="app.diagrams.net" modified="2022-07-16T12:00:35.582Z" agent="5.0 (Windows NT 10.0; Win64; x64) AppleWebKit/537.36 (KHTML, like Gecko) Chrome/103.0.0.0 Safari/537.36" etag="BTxLWcg_x5K9bOQNhuzI" version="20.1.1" type="github">
  <diagram name="Page-1" id="55a83fd1-7818-8e21-69c5-c3457e3827bb">
    <mxGraphModel dx="1422" dy="697" grid="1" gridSize="10" guides="1" tooltips="1" connect="1" arrows="1" fold="1" page="1" pageScale="1" pageWidth="1100" pageHeight="850" background="none" math="0" shadow="0">
      <root>
        <mxCell id="0" />
        <mxCell id="1" parent="0" />
        <mxCell id="69ecfefc5c41e42c-2" value="Internet - GPON" style="image;html=1;labelBackgroundColor=#ffffff;image=img/lib/clip_art/networking/Cloud_128x128.png;rounded=1;shadow=0;comic=0;strokeWidth=2;fontSize=22;labelPosition=center;verticalLabelPosition=top;align=center;verticalAlign=bottom;" parent="1" vertex="1">
          <mxGeometry x="339" y="171" width="80" height="80" as="geometry" />
        </mxCell>
        <mxCell id="69ecfefc5c41e42c-19" style="edgeStyle=none;rounded=0;html=1;labelBackgroundColor=none;endArrow=none;strokeWidth=2;fontFamily=Verdana;fontSize=22" parent="1" source="etmewD35TnTJeaaW74oW-7" target="69ecfefc5c41e42c-2" edge="1">
          <mxGeometry relative="1" as="geometry" />
        </mxCell>
        <mxCell id="69ecfefc5c41e42c-4" value="&lt;font style=&quot;font-size: 14px;&quot;&gt;Tablet&lt;/font&gt;" style="image;html=1;labelBackgroundColor=#ffffff;image=img/lib/clip_art/computers/iPad_128x128.png;rounded=1;shadow=0;comic=0;strokeWidth=2;fontSize=22" parent="1" vertex="1">
          <mxGeometry x="914" y="661" width="60" height="58" as="geometry" />
        </mxCell>
        <mxCell id="69ecfefc5c41e42c-8" value="Mobile" style="image;html=1;labelBackgroundColor=#ffffff;image=img/lib/clip_art/telecommunication/iPhone_128x128.png;rounded=1;shadow=0;comic=0;strokeWidth=2;fontSize=14;" parent="1" vertex="1">
          <mxGeometry x="924" y="1210" width="60" height="50" as="geometry" />
        </mxCell>
        <mxCell id="69ecfefc5c41e42c-9" value="Laptop" style="image;html=1;labelBackgroundColor=#ffffff;image=img/lib/clip_art/computers/Netbook_128x128.png;rounded=1;shadow=0;comic=0;strokeColor=#000000;strokeWidth=2;fillColor=#FFFFFF;fontSize=14;fontColor=#000000;" parent="1" vertex="1">
          <mxGeometry x="539" y="1160" width="80" height="80" as="geometry" />
        </mxCell>
        <mxCell id="69ecfefc5c41e42c-10" value="&lt;font style=&quot;font-size: 14px;&quot;&gt;Laptop&lt;/font&gt;" style="image;html=1;labelBackgroundColor=#ffffff;image=img/lib/clip_art/computers/Netbook_128x128.png;rounded=1;shadow=0;comic=0;strokeWidth=2;fontSize=22" parent="1" vertex="1">
          <mxGeometry x="239" y="791" width="80" height="80" as="geometry" />
        </mxCell>
        <mxCell id="69ecfefc5c41e42c-12" value="" style="html=1;fillColor=#CCCCCC;strokeColor=#6881B3;gradientColor=none;gradientDirection=north;strokeWidth=2;shape=mxgraph.networks.comm_link_edge;html=1;labelBackgroundColor=none;endArrow=none;fontFamily=Verdana;fontSize=22;fontColor=#000000;fontStyle=1;entryX=1.006;entryY=0.675;entryDx=0;entryDy=0;entryPerimeter=0;" parent="1" source="69ecfefc5c41e42c-8" target="etmewD35TnTJeaaW74oW-32" edge="1">
          <mxGeometry width="100" height="100" relative="1" as="geometry">
            <mxPoint x="399" y="612.9565217391305" as="sourcePoint" />
            <mxPoint x="549" y="639.0434782608695" as="targetPoint" />
            <Array as="points">
              <mxPoint x="459" y="571" />
            </Array>
          </mxGeometry>
        </mxCell>
        <mxCell id="69ecfefc5c41e42c-14" value="" style="html=1;fillColor=#CCCCCC;strokeColor=#6881B3;gradientColor=none;gradientDirection=north;strokeWidth=2;shape=mxgraph.networks.comm_link_edge;html=1;labelBackgroundColor=none;endArrow=none;fontFamily=Verdana;fontSize=22;fontColor=#000000;" parent="1" source="69ecfefc5c41e42c-4" target="etmewD35TnTJeaaW74oW-25" edge="1">
          <mxGeometry width="100" height="100" relative="1" as="geometry">
            <mxPoint x="419" y="632.9565217391305" as="sourcePoint" />
            <mxPoint x="569" y="659.0434782608695" as="targetPoint" />
          </mxGeometry>
        </mxCell>
        <mxCell id="69ecfefc5c41e42c-15" value="" style="html=1;fillColor=#CCCCCC;strokeColor=#6881B3;gradientColor=none;gradientDirection=north;strokeWidth=2;shape=mxgraph.networks.comm_link_edge;html=1;labelBackgroundColor=none;endArrow=none;fontFamily=Verdana;fontSize=22;fontColor=#000000;" parent="1" source="etmewD35TnTJeaaW74oW-23" target="etmewD35TnTJeaaW74oW-32" edge="1">
          <mxGeometry width="100" height="100" relative="1" as="geometry">
            <mxPoint x="654" y="551.9565217391305" as="sourcePoint" />
            <mxPoint x="804" y="578.0434782608695" as="targetPoint" />
          </mxGeometry>
        </mxCell>
        <mxCell id="69ecfefc5c41e42c-16" value="" style="html=1;fillColor=#CCCCCC;strokeColor=#6881B3;gradientColor=none;gradientDirection=north;strokeWidth=2;shape=mxgraph.networks.comm_link_edge;html=1;labelBackgroundColor=none;endArrow=none;fontFamily=Verdana;fontSize=22;fontColor=#000000;exitX=0;exitY=0.5;exitDx=0;exitDy=0;" parent="1" source="etmewD35TnTJeaaW74oW-24" target="etmewD35TnTJeaaW74oW-25" edge="1">
          <mxGeometry width="100" height="100" relative="1" as="geometry">
            <mxPoint x="439" y="652.9565217391305" as="sourcePoint" />
            <mxPoint x="809" y="621" as="targetPoint" />
          </mxGeometry>
        </mxCell>
        <mxCell id="69ecfefc5c41e42c-17" value="" style="html=1;fillColor=#CCCCCC;strokeColor=#6881B3;gradientColor=none;gradientDirection=north;strokeWidth=2;shape=mxgraph.networks.comm_link_edge;html=1;labelBackgroundColor=none;endArrow=none;fontFamily=Verdana;fontSize=22;fontColor=#000000;" parent="1" source="etmewD35TnTJeaaW74oW-32" target="etmewD35TnTJeaaW74oW-25" edge="1">
          <mxGeometry width="100" height="100" relative="1" as="geometry">
            <mxPoint x="829" y="891" as="sourcePoint" />
            <mxPoint x="719" y="901" as="targetPoint" />
          </mxGeometry>
        </mxCell>
        <mxCell id="etmewD35TnTJeaaW74oW-2" value="Internet - P2P" style="image;html=1;labelBackgroundColor=#ffffff;image=img/lib/clip_art/networking/Cloud_128x128.png;rounded=1;shadow=0;comic=0;strokeWidth=2;fontSize=22;labelPosition=center;verticalLabelPosition=top;align=center;verticalAlign=bottom;" vertex="1" parent="1">
          <mxGeometry x="711.8" y="171" width="80" height="80" as="geometry" />
        </mxCell>
        <mxCell id="etmewD35TnTJeaaW74oW-6" value="&lt;h5 style=&quot;&quot;&gt;&lt;font style=&quot;font-size: 12px;&quot; color=&quot;#000000&quot;&gt;router&amp;nbsp;&lt;span style=&quot;font-weight: 700; text-align: start; background-color: rgb(255, 255, 255);&quot;&gt;RB2011UiAS-IN&lt;/span&gt;&lt;/font&gt;&lt;/h5&gt;" style="fontColor=#0066CC;verticalAlign=top;verticalLabelPosition=bottom;labelPosition=center;align=center;html=1;outlineConnect=0;fillColor=#CCCCCC;strokeColor=#6881B3;gradientColor=none;gradientDirection=north;strokeWidth=2;shape=mxgraph.networks.router;" vertex="1" parent="1">
          <mxGeometry x="529" y="451" width="100" height="30" as="geometry" />
        </mxCell>
        <mxCell id="etmewD35TnTJeaaW74oW-7" value="&lt;font color=&quot;#000000&quot;&gt;ONT&lt;/font&gt;" style="fontColor=#0066CC;verticalAlign=top;verticalLabelPosition=bottom;labelPosition=center;align=center;html=1;outlineConnect=0;fillColor=#CCCCCC;strokeColor=#6881B3;gradientColor=none;gradientDirection=north;strokeWidth=2;shape=mxgraph.networks.wireless_modem;" vertex="1" parent="1">
          <mxGeometry x="329" y="311" width="100" height="85" as="geometry" />
        </mxCell>
        <mxCell id="etmewD35TnTJeaaW74oW-9" style="edgeStyle=none;rounded=0;html=1;labelBackgroundColor=none;endArrow=none;strokeWidth=2;fontFamily=Verdana;fontSize=22" edge="1" parent="1" source="etmewD35TnTJeaaW74oW-12" target="etmewD35TnTJeaaW74oW-2">
          <mxGeometry relative="1" as="geometry">
            <mxPoint x="770.818181818182" y="361" as="sourcePoint" />
            <mxPoint x="711.950819672131" y="291" as="targetPoint" />
          </mxGeometry>
        </mxCell>
        <mxCell id="etmewD35TnTJeaaW74oW-10" value="STB - GPON" style="shape=mxgraph.cisco.misc.stb;html=1;pointerEvents=1;dashed=0;fillColor=#036897;strokeColor=#ffffff;strokeWidth=2;verticalLabelPosition=bottom;verticalAlign=top;align=center;outlineConnect=0;" vertex="1" parent="1">
          <mxGeometry x="119" y="361" width="86" height="37" as="geometry" />
        </mxCell>
        <mxCell id="etmewD35TnTJeaaW74oW-12" value="media converter" style="points=[];aspect=fixed;html=1;align=center;shadow=0;dashed=0;image;image=img/lib/allied_telesis/media_converters/Media_Converter_Standalone.svg;" vertex="1" parent="1">
          <mxGeometry x="729" y="341" width="45.6" height="37.2" as="geometry" />
        </mxCell>
        <mxCell id="etmewD35TnTJeaaW74oW-13" style="edgeStyle=none;rounded=0;html=1;labelBackgroundColor=none;endArrow=none;strokeWidth=2;fontFamily=Verdana;fontSize=22;exitX=0.417;exitY=1.051;exitDx=0;exitDy=0;exitPerimeter=0;" edge="1" parent="1" source="etmewD35TnTJeaaW74oW-12" target="etmewD35TnTJeaaW74oW-6">
          <mxGeometry relative="1" as="geometry">
            <mxPoint x="762.2976842105263" y="344.9" as="sourcePoint" />
            <mxPoint x="779" y="261" as="targetPoint" />
          </mxGeometry>
        </mxCell>
        <mxCell id="etmewD35TnTJeaaW74oW-14" style="edgeStyle=none;rounded=0;html=1;labelBackgroundColor=none;endArrow=none;strokeWidth=2;fontFamily=Verdana;fontSize=22;" edge="1" parent="1" source="etmewD35TnTJeaaW74oW-7" target="etmewD35TnTJeaaW74oW-6">
          <mxGeometry relative="1" as="geometry">
            <mxPoint x="878.9952000000001" y="400.9972" as="sourcePoint" />
            <mxPoint x="786.5262425411638" y="501.9" as="targetPoint" />
          </mxGeometry>
        </mxCell>
        <mxCell id="etmewD35TnTJeaaW74oW-16" style="edgeStyle=none;rounded=0;html=1;labelBackgroundColor=none;endArrow=none;strokeWidth=2;fontFamily=Verdana;fontSize=22;" edge="1" parent="1" source="etmewD35TnTJeaaW74oW-10">
          <mxGeometry relative="1" as="geometry">
            <mxPoint x="705.2152000000001" y="370.09720000000004" as="sourcePoint" />
            <mxPoint x="319" y="381" as="targetPoint" />
          </mxGeometry>
        </mxCell>
        <mxCell id="etmewD35TnTJeaaW74oW-17" value="STB - P2P" style="shape=mxgraph.cisco.misc.stb;html=1;pointerEvents=1;dashed=0;fillColor=#036897;strokeColor=#ffffff;strokeWidth=2;verticalLabelPosition=bottom;verticalAlign=top;align=center;outlineConnect=0;" vertex="1" parent="1">
          <mxGeometry x="849" y="444" width="86" height="37" as="geometry" />
        </mxCell>
        <mxCell id="etmewD35TnTJeaaW74oW-18" style="edgeStyle=none;rounded=0;html=1;labelBackgroundColor=none;endArrow=none;strokeWidth=2;fontFamily=Verdana;fontSize=22;" edge="1" parent="1" source="etmewD35TnTJeaaW74oW-17" target="etmewD35TnTJeaaW74oW-6">
          <mxGeometry relative="1" as="geometry">
            <mxPoint x="969" y="301" as="sourcePoint" />
            <mxPoint x="829.4975516216005" y="371.90279999999996" as="targetPoint" />
          </mxGeometry>
        </mxCell>
        <mxCell id="etmewD35TnTJeaaW74oW-20" value="&lt;font style=&quot;font-size: 14px;&quot;&gt;PC&lt;/font&gt;" style="image;html=1;labelBackgroundColor=#ffffff;image=img/lib/clip_art/computers/Monitor_Tower_128x128.png;rounded=1;shadow=0;comic=0;strokeWidth=2;fontSize=22" vertex="1" parent="1">
          <mxGeometry x="229" y="541" width="80" height="80" as="geometry" />
        </mxCell>
        <mxCell id="etmewD35TnTJeaaW74oW-22" style="edgeStyle=none;rounded=0;html=1;labelBackgroundColor=none;endArrow=none;strokeWidth=2;fontFamily=Verdana;fontSize=22;" edge="1" parent="1" source="etmewD35TnTJeaaW74oW-6" target="etmewD35TnTJeaaW74oW-20">
          <mxGeometry relative="1" as="geometry">
            <mxPoint x="499" y="651" as="sourcePoint" />
            <mxPoint x="279" y="653.4600638977636" as="targetPoint" />
          </mxGeometry>
        </mxCell>
        <mxCell id="etmewD35TnTJeaaW74oW-23" value="Camera 2" style="image;html=1;image=img/lib/clip_art/networking/Ip_Camera_128x128.png;fontFamily=Helvetica;fontSize=12;fontColor=#000000;" vertex="1" parent="1">
          <mxGeometry x="936.8" y="1039" width="47.2" height="51" as="geometry" />
        </mxCell>
        <mxCell id="etmewD35TnTJeaaW74oW-24" value="Camera 1" style="image;html=1;image=img/lib/clip_art/networking/Ip_Camera_128x128.png;fontFamily=Helvetica;fontSize=12;fontColor=#000000;" vertex="1" parent="1">
          <mxGeometry x="894" y="550" width="50" height="60" as="geometry" />
        </mxCell>
        <mxCell id="etmewD35TnTJeaaW74oW-25" value="TP-Link Deco X20 mesh WIFI" style="shape=mxgraph.cisco.misc.mesh_ap;html=1;pointerEvents=1;dashed=0;fillColor=#036897;strokeColor=#ffffff;strokeWidth=2;verticalLabelPosition=bottom;verticalAlign=top;align=center;outlineConnect=0;fontFamily=Helvetica;fontSize=12;fontColor=#000000;" vertex="1" parent="1">
          <mxGeometry x="719" y="621" width="80.5" height="40" as="geometry" />
        </mxCell>
        <mxCell id="etmewD35TnTJeaaW74oW-26" value="&lt;font style=&quot;font-size: 14px;&quot; color=&quot;#000000&quot;&gt;Belkin Thunderbolt 3 Dock&lt;/font&gt;" style="fontColor=#0066CC;verticalAlign=top;verticalLabelPosition=bottom;labelPosition=center;align=center;html=1;outlineConnect=0;fillColor=#CCCCCC;strokeColor=#6881B3;gradientColor=none;gradientDirection=north;strokeWidth=2;shape=mxgraph.networks.hub;fontFamily=Helvetica;fontSize=12;" vertex="1" parent="1">
          <mxGeometry x="439" y="691" width="100" height="30" as="geometry" />
        </mxCell>
        <mxCell id="etmewD35TnTJeaaW74oW-27" style="edgeStyle=none;rounded=0;html=1;labelBackgroundColor=none;endArrow=none;strokeWidth=2;fontFamily=Verdana;fontSize=22;" edge="1" parent="1" source="etmewD35TnTJeaaW74oW-6" target="etmewD35TnTJeaaW74oW-26">
          <mxGeometry relative="1" as="geometry">
            <mxPoint x="599" y="801" as="sourcePoint" />
            <mxPoint x="444.3846153846155" y="892.3636363636363" as="targetPoint" />
          </mxGeometry>
        </mxCell>
        <mxCell id="etmewD35TnTJeaaW74oW-28" style="edgeStyle=none;rounded=0;html=1;labelBackgroundColor=none;endArrow=none;strokeWidth=2;fontFamily=Verdana;fontSize=22;exitX=0.5;exitY=1;exitDx=0;exitDy=0;exitPerimeter=0;" edge="1" parent="1" source="etmewD35TnTJeaaW74oW-26" target="69ecfefc5c41e42c-10">
          <mxGeometry relative="1" as="geometry">
            <mxPoint x="519" y="831" as="sourcePoint" />
            <mxPoint x="364.3846153846155" y="922.3636363636363" as="targetPoint" />
          </mxGeometry>
        </mxCell>
        <mxCell id="etmewD35TnTJeaaW74oW-29" value="Monitor" style="image;html=1;image=img/lib/clip_art/computers/Monitor_128x128.png;fontFamily=Helvetica;fontSize=14;fontColor=#000000;" vertex="1" parent="1">
          <mxGeometry x="419" y="841" width="80" height="80" as="geometry" />
        </mxCell>
        <mxCell id="etmewD35TnTJeaaW74oW-30" style="edgeStyle=none;rounded=0;html=1;labelBackgroundColor=none;endArrow=none;strokeWidth=2;fontFamily=Verdana;fontSize=22;" edge="1" parent="1" source="etmewD35TnTJeaaW74oW-26" target="etmewD35TnTJeaaW74oW-29">
          <mxGeometry relative="1" as="geometry">
            <mxPoint x="609" y="821" as="sourcePoint" />
            <mxPoint x="469" y="906.5555555555557" as="targetPoint" />
          </mxGeometry>
        </mxCell>
        <mxCell id="etmewD35TnTJeaaW74oW-31" style="edgeStyle=none;rounded=0;html=1;labelBackgroundColor=none;endArrow=none;strokeWidth=2;fontFamily=Verdana;fontSize=22;" edge="1" parent="1" source="etmewD35TnTJeaaW74oW-6" target="etmewD35TnTJeaaW74oW-25">
          <mxGeometry relative="1" as="geometry">
            <mxPoint x="649" y="591" as="sourcePoint" />
            <mxPoint x="570.25" y="801" as="targetPoint" />
          </mxGeometry>
        </mxCell>
        <mxCell id="etmewD35TnTJeaaW74oW-32" value="TP-Link Deco X20 mesh WIFI" style="shape=mxgraph.cisco.misc.mesh_ap;html=1;pointerEvents=1;dashed=0;fillColor=#036897;strokeColor=#ffffff;strokeWidth=2;verticalLabelPosition=bottom;verticalAlign=top;align=center;outlineConnect=0;fontFamily=Helvetica;fontSize=12;fontColor=#000000;" vertex="1" parent="1">
          <mxGeometry x="739" y="1089" width="80.5" height="40" as="geometry" />
        </mxCell>
        <mxCell id="etmewD35TnTJeaaW74oW-33" value="" style="html=1;fillColor=#CCCCCC;strokeColor=#6881B3;gradientColor=none;gradientDirection=north;strokeWidth=2;shape=mxgraph.networks.comm_link_edge;html=1;labelBackgroundColor=none;endArrow=none;fontFamily=Verdana;fontSize=22;fontColor=#000000;fontStyle=1;exitX=1;exitY=0.5;exitDx=0;exitDy=0;" edge="1" parent="1" source="69ecfefc5c41e42c-9">
          <mxGeometry width="100" height="100" relative="1" as="geometry">
            <mxPoint x="849" y="1041" as="sourcePoint" />
            <mxPoint x="764" y="1140" as="targetPoint" />
            <Array as="points">
              <mxPoint x="374" y="1260" />
              <mxPoint x="791.0289855072463" y="531" />
            </Array>
          </mxGeometry>
        </mxCell>
        <mxCell id="etmewD35TnTJeaaW74oW-35" value="TV" style="sketch=0;pointerEvents=1;shadow=0;dashed=0;html=1;strokeColor=none;fillColor=#505050;labelPosition=center;verticalLabelPosition=bottom;verticalAlign=top;outlineConnect=0;align=center;shape=mxgraph.office.devices.tv;fontFamily=Helvetica;fontSize=14;fontColor=#000000;" vertex="1" parent="1">
          <mxGeometry x="760.5" y="1260" width="59" height="45" as="geometry" />
        </mxCell>
        <mxCell id="etmewD35TnTJeaaW74oW-36" value="" style="html=1;fillColor=#CCCCCC;strokeColor=#6881B3;gradientColor=none;gradientDirection=north;strokeWidth=2;shape=mxgraph.networks.comm_link_edge;html=1;labelBackgroundColor=none;endArrow=none;fontFamily=Verdana;fontSize=22;fontColor=#000000;fontStyle=1;entryX=0.5;entryY=1;entryDx=0;entryDy=0;entryPerimeter=0;" edge="1" parent="1" source="etmewD35TnTJeaaW74oW-35" target="etmewD35TnTJeaaW74oW-32">
          <mxGeometry width="100" height="100" relative="1" as="geometry">
            <mxPoint x="819" y="1371" as="sourcePoint" />
            <mxPoint x="983.4323857302115" y="1241" as="targetPoint" />
            <Array as="points">
              <mxPoint x="855.2113712374578" y="891" />
            </Array>
          </mxGeometry>
        </mxCell>
        <mxCell id="etmewD35TnTJeaaW74oW-37" value="Mobile" style="image;html=1;labelBackgroundColor=#ffffff;image=img/lib/clip_art/telecommunication/iPhone_128x128.png;rounded=1;shadow=0;comic=0;strokeWidth=2;fontSize=14;" vertex="1" parent="1">
          <mxGeometry x="584" y="1030" width="60" height="50" as="geometry" />
        </mxCell>
        <mxCell id="etmewD35TnTJeaaW74oW-38" value="" style="html=1;fillColor=#CCCCCC;strokeColor=#6881B3;gradientColor=none;gradientDirection=north;strokeWidth=2;shape=mxgraph.networks.comm_link_edge;html=1;labelBackgroundColor=none;endArrow=none;fontFamily=Verdana;fontSize=22;fontColor=#000000;fontStyle=1;exitX=1;exitY=0.5;exitDx=0;exitDy=0;entryX=0;entryY=0.5;entryDx=0;entryDy=0;entryPerimeter=0;" edge="1" parent="1" source="etmewD35TnTJeaaW74oW-37" target="etmewD35TnTJeaaW74oW-32">
          <mxGeometry width="100" height="100" relative="1" as="geometry">
            <mxPoint x="389" y="322.9565217391305" as="sourcePoint" />
            <mxPoint x="909.25" y="591" as="targetPoint" />
            <Array as="points">
              <mxPoint x="449" y="281" />
            </Array>
          </mxGeometry>
        </mxCell>
        <mxCell id="etmewD35TnTJeaaW74oW-39" value="&lt;font style=&quot;font-size: 14px;&quot;&gt;Mobile&lt;/font&gt;" style="image;html=1;labelBackgroundColor=#ffffff;image=img/lib/clip_art/telecommunication/iPhone_128x128.png;rounded=1;shadow=0;comic=0;strokeWidth=2;fontSize=22" vertex="1" parent="1">
          <mxGeometry x="834" y="730" width="50" height="40" as="geometry" />
        </mxCell>
        <mxCell id="etmewD35TnTJeaaW74oW-40" value="" style="html=1;fillColor=#CCCCCC;strokeColor=#6881B3;gradientColor=none;gradientDirection=north;strokeWidth=2;shape=mxgraph.networks.comm_link_edge;html=1;labelBackgroundColor=none;endArrow=none;fontFamily=Verdana;fontSize=22;fontColor=#000000;fontStyle=1;entryX=0.5;entryY=1;entryDx=0;entryDy=0;entryPerimeter=0;" edge="1" parent="1" source="etmewD35TnTJeaaW74oW-39" target="etmewD35TnTJeaaW74oW-25">
          <mxGeometry width="100" height="100" relative="1" as="geometry">
            <mxPoint x="669" y="121.9565217391305" as="sourcePoint" />
            <mxPoint x="824.25" y="729" as="targetPoint" />
            <Array as="points">
              <mxPoint x="729" y="80" />
            </Array>
          </mxGeometry>
        </mxCell>
      </root>
    </mxGraphModel>
  </diagram>
</mxfile>
